<?xml version="1.0" standalone="no"?>
<!DOCTYPE svg PUBLIC "-//W3C//DTD SVG 20010904//EN"
 "http://www.w3.org/TR/2001/REC-SVG-20010904/DTD/svg10.dtd">
<svg version="1.0" xmlns="http://www.w3.org/2000/svg"
 width="1300.000000pt" height="1300.000000pt" viewBox="0 0 1300.000000 1300.000000"
 preserveAspectRatio="xMidYMid meet">
<metadata>
Created by potrace 1.14, written by Peter Selinger 2001-2017
</metadata>
<g transform="translate(0.000000,1300.000000) scale(0.100000,-0.100000)"
fill="#000000" stroke="none">
<path d="M7580 9280 c-233 -33 -459 -126 -645 -266 -78 -58 -1054 -1014 -1133
-1109 -275 -332 -369 -791 -247 -1210 33 -114 117 -288 184 -383 103 -144 256
-285 413 -379 l71 -42 38 30 c68 53 177 179 204 233 75 153 49 317 -74 461
-115 135 -161 231 -181 374 -21 157 20 317 115 450 36 49 959 962 1035 1023
109 87 243 131 395 131 358 0 635 -268 639 -618 1 -121 -13 -183 -66 -295 -40
-84 -45 -90 -397 -436 l-355 -352 26 -83 c39 -123 48 -159 63 -277 22 -160 18
-301 -11 -481 l-7 -45 34 24 c44 31 223 204 714 690 429 425 487 493 570 665
97 199 130 345 130 575 0 238 -42 410 -147 611 -188 360 -521 607 -933 694
-94 20 -340 28 -435 15z"/>
<path d="M6669 7387 c-118 -114 -153 -172 -171 -280 -20 -124 17 -232 125
-362 121 -144 170 -267 170 -430 1 -111 -14 -176 -65 -285 l-39 -85 -497 -493
c-273 -270 -519 -510 -547 -531 -120 -94 -244 -136 -405 -135 -99 0 -126 4
-195 28 -347 119 -524 475 -405 813 42 120 73 156 436 516 l352 347 -20 52
c-66 175 -99 442 -79 640 6 68 15 138 18 157 l6 34 -34 -24 c-44 -31 -616
-588 -915 -890 -159 -162 -247 -259 -283 -314 -261 -398 -291 -897 -81 -1315
162 -322 441 -563 783 -674 411 -134 888 -56 1229 200 101 75 1078 1033 1161
1137 124 155 216 352 258 547 32 148 32 391 1 537 -81 377 -310 688 -653 886
l-45 27 -105 -103z"/>
</g>
</svg>
